<?xml version="1.0" standalone="no"?>
<!DOCTYPE svg PUBLIC "-//W3C//DTD SVG 20010904//EN"
 "http://www.w3.org/TR/2001/REC-SVG-20010904/DTD/svg10.dtd">
<svg version="1.0" xmlns="http://www.w3.org/2000/svg"
 width="148.000000pt" height="32.000000pt" viewBox="0 0 148.000000 32.000000"
 preserveAspectRatio="xMidYMid meet">
<metadata>
Created by potrace 1.16, written by Peter Selinger 2001-2019
</metadata>
<g transform="translate(0.000000,32.000000) scale(0.065778,-0.014222)"
fill="#000000" stroke="none">
<path d="M890 2221 c-606 -134 -990 -723 -865 -1326 137 -660 817 -1049 1458
-835 275 92 509 296 639 555 94 186 122 323 115 550 -4 131 -9 177 -30 251
-108 385 -405 682 -791 791 -126 35 -396 43 -526 14z m349 -117 c18 -4 39 -17
48 -30 14 -22 14 -26 -1 -49 -15 -23 -15 -27 -1 -49 14 -20 14 -29 4 -48 -17
-33 -28 -38 -86 -38 -82 0 -80 -4 -67 113 6 56 12 103 13 105 2 4 59 2 90 -4z
m214 -50 c31 -10 57 -24 57 -31 0 -16 -1 -16 -62 4 -49 16 -51 15 -65 -2 -19
-27 -13 -35 42 -57 58 -23 59 -24 51 -36 -4 -6 -26 -3 -58 9 -28 10 -53 18
-53 16 -8 -10 -25 -48 -25 -55 0 -5 27 -18 60 -28 33 -11 60 -25 60 -31 0 -7
-5 -13 -10 -13 -18 0 -140 41 -144 48 -4 7 47 173 59 193 4 6 12 8 19 6 6 -2
37 -13 69 -23z m-484 -50 c44 -56 15 -143 -44 -132 -14 3 -25 5 -25 4 0 -1 4
-16 9 -33 6 -21 6 -35 0 -39 -16 -9 -19 -2 -45 101 -25 97 -25 118 0 109 8 -3
17 -1 21 5 13 21 63 12 84 -15z m-207 -71 c28 -25 22 -37 -28 -61 -50 -25 -54
-47 -8 -47 22 0 32 7 42 28 15 32 32 36 32 7 0 -29 -44 -70 -74 -70 -63 0
-108 93 -66 138 25 26 75 29 102 5z m914 2 c4 -8 -1 -54 -11 -103 -22 -118
-24 -122 -40 -115 -11 4 -13 15 -9 43 6 34 4 39 -30 59 l-36 23 -28 -21 c-21
-15 -32 -17 -40 -9 -8 8 13 28 76 74 91 66 109 74 118 49z m-1056 -93 c49 -57
60 -76 51 -85 -9 -9 -19 -3 -44 26 l-32 38 -37 -31 c-21 -17 -38 -35 -38 -40
0 -5 11 -22 25 -38 14 -17 25 -35 25 -41 0 -25 -28 -6 -75 50 -74 90 -79 99
-68 110 7 7 19 0 36 -20 14 -17 28 -31 32 -31 11 0 75 55 75 64 0 6 -12 23
-27 38 -23 24 -25 30 -13 38 8 5 17 6 20 2 4 -4 35 -40 70 -80z m322 -222 c35
-11 90 -38 122 -61 l57 -41 34 27 c20 14 65 40 103 58 61 29 76 32 162 32 79
0 102 -4 137 -23 127 -67 194 -195 195 -371 1 -141 -37 -203 -225 -368 -67
-59 -186 -170 -264 -247 l-143 -140 -107 110 c-60 61 -178 172 -265 247 -224
196 -260 252 -259 402 0 97 27 193 74 262 35 51 109 107 161 122 54 16 151 12
218 -9z m-442 -942 c0 -6 -14 -23 -30 -37 l-30 -26 33 -42 33 -41 32 24 c18
14 36 22 42 19 15 -9 7 -18 -76 -86 -55 -45 -78 -59 -87 -50 -8 8 0 20 28 44
l39 34 -33 41 -33 41 -39 -31 c-27 -22 -43 -28 -50 -21 -7 7 14 30 68 76 76
65 103 79 103 55z m1389 3 c12 -8 9 -18 -17 -58 -28 -42 -29 -49 -14 -54 30
-11 54 9 50 44 -2 23 1 32 12 32 24 0 24 -48 0 -78 -37 -47 -110 -33 -135 26
-11 26 -11 36 1 58 7 15 19 29 26 32 21 9 62 7 77 -2z m-1295 -191 c37 -14 52
-51 36 -90 -7 -16 -16 -30 -21 -30 -5 0 -24 14 -42 30 -42 36 -57 38 -57 6 0
-29 20 -47 50 -44 29 4 38 -18 11 -27 -24 -7 -76 17 -85 40 -16 43 4 89 49
113 25 14 28 14 59 2z m1077 -22 c9 -7 30 -32 48 -55 30 -39 31 -44 14 -50
-10 -4 -24 -15 -31 -25 -21 -29 -49 -40 -72 -28 -29 15 -25 58 7 92 21 22 24
31 15 40 -17 17 -45 -1 -52 -32 -8 -33 -30 -38 -30 -7 0 16 12 35 31 51 34 29
48 32 70 14z m-933 -78 c17 -11 32 -25 32 -32 0 -23 -55 -127 -67 -127 -7 -1
-13 4 -13 9 0 6 -8 10 -19 10 -29 0 -73 39 -69 63 5 33 31 43 80 30 54 -15 74
-1 40 28 -18 14 -28 16 -42 9 -20 -11 -36 2 -25 20 10 16 47 12 83 -10z m822
-20 c11 -11 20 -23 20 -28 0 -4 -20 -18 -45 -32 -50 -27 -54 -45 -9 -45 20 0
32 7 39 23 11 25 35 30 35 7 0 -27 -47 -65 -79 -65 -36 0 -81 49 -81 88 0 60
78 94 120 52z m-365 -26 c47 -19 62 -138 21 -179 -25 -25 -74 -39 -122 -33
l-29 3 -3 108 -3 107 60 0 c32 0 67 -3 76 -6z"/>
<path d="M1183 1408 c-6 -7 -20 -56 -31 -108 -48 -224 -55 -255 -62 -263 -3
-4 -26 53 -49 127 -57 182 -70 190 -111 74 l-23 -67 -121 -3 c-119 -3 -121 -3
-121 -26 0 -23 0 -23 140 -23 l139 0 11 30 c5 16 13 32 16 35 3 4 20 -40 38
-96 18 -57 39 -121 46 -143 14 -44 38 -66 55 -49 5 5 29 97 52 202 23 106 45
189 48 185 4 -5 15 -35 25 -68 33 -108 29 -105 107 -105 52 0 68 -3 68 -14 0
-8 14 -26 31 -40 57 -49 136 -29 166 41 29 70 -23 143 -100 143 -34 0 -46 -6
-79 -41 -34 -36 -43 -40 -79 -37 l-42 3 -41 125 c-41 124 -58 149 -83 118z"/>
<path d="M1090 263 c0 -32 3 -69 7 -82 5 -21 10 -23 46 -18 49 7 57 15 64 66
8 62 -15 91 -72 91 l-45 0 0 -57z"/>
</g>
</svg>
