<?xml version="1.0" standalone="no"?>
<!DOCTYPE svg PUBLIC "-//W3C//DTD SVG 20010904//EN"
 "http://www.w3.org/TR/2001/REC-SVG-20010904/DTD/svg10.dtd">
<svg version="1.0" xmlns="http://www.w3.org/2000/svg"
 width="148.000000pt" height="32.000000pt" viewBox="0 0 148.000000 32.000000"
 preserveAspectRatio="xMidYMid meet">
<metadata>
Created by potrace 1.16, written by Peter Selinger 2001-2019
</metadata>
<g transform="translate(0.000000,32.000000) scale(0.039785,-0.023704)"
fill="#000000" stroke="none">
<path d="M560 1329 c-43 -18 -90 -59 -110 -100 -13 -24 -27 -39 -39 -39 -10 0
-24 -7 -31 -15 -11 -13 -8 -15 15 -15 22 0 26 -3 20 -17 -18 -46 -16 -161 3
-253 40 -196 133 -363 281 -510 105 -104 177 -149 280 -176 188 -48 320 80
321 309 0 317 -252 704 -526 807 -59 22 -170 26 -214 9z m300 -76 c148 -71
302 -262 367 -458 37 -112 39 -265 4 -342 -37 -84 -46 -84 -66 -2 -38 155
-152 336 -301 479 -70 67 -67 64 21 -30 155 -164 235 -325 238 -477 1 -89 -4
-95 -89 -91 -97 6 -180 52 -289 162 -104 105 -158 193 -206 336 -27 80 -32
110 -32 193 -1 57 4 102 10 108 8 8 33 1 89 -25 44 -20 70 -29 59 -20 -11 8
-46 27 -77 42 -32 15 -58 31 -58 36 0 21 44 77 77 97 76 47 141 45 253 -8z"/>
<path d="M1556 1204 c-14 -13 -16 -59 -16 -344 0 -328 0 -329 22 -344 29 -21
51 -20 79 3 22 18 24 18 63 0 57 -26 167 -25 226 2 102 46 160 137 160 254 0
119 -58 209 -164 256 -59 26 -155 28 -211 5 -20 -9 -39 -16 -41 -16 -2 0 -4
38 -4 83 0 69 -3 87 -18 100 -23 21 -76 22 -96 1z m301 -295 c40 -15 81 -57
94 -96 31 -96 -72 -201 -171 -173 -68 20 -119 97 -105 160 12 57 83 118 137
120 9 0 29 -5 45 -11z"/>
<path d="M3434 1206 c-18 -14 -19 -29 -19 -283 0 -293 1 -296 61 -357 40 -39
74 -55 137 -62 51 -6 58 -4 81 19 51 51 21 117 -54 117 -30 0 -47 7 -65 25
-24 23 -25 30 -25 145 l0 120 65 0 c70 0 105 20 105 60 0 40 -35 60 -105 60
l-65 0 0 68 c0 54 -4 72 -18 85 -23 21 -71 22 -98 3z"/>
<path d="M200 1191 c-175 -54 -238 -239 -160 -472 124 -371 525 -703 850 -702
90 0 160 27 211 79 l34 35 -40 -17 c-52 -22 -153 -22 -228 0 -109 32 -317 141
-407 214 -145 117 -272 296 -316 447 -34 118 -17 247 42 310 11 11 29 41 41
68 24 49 21 52 -27 38z"/>
<path d="M2302 1024 c-225 -112 -192 -448 51 -515 95 -27 221 -5 279 48 36 32
13 103 -33 103 -10 0 -48 -10 -85 -22 -58 -19 -72 -20 -111 -10 -25 7 -55 20
-68 30 -22 16 -55 62 -55 76 0 3 85 6 189 6 201 0 211 2 226 50 16 50 -47 169
-113 212 -86 57 -194 65 -280 22z m170 -94 c37 -11 88 -60 88 -86 0 -11 -25
-14 -134 -14 -74 0 -137 4 -140 9 -9 14 44 72 79 87 37 16 59 17 107 4z"/>
<path d="M2945 1038 c-61 -21 -120 -75 -158 -143 -31 -58 -31 -182 1 -243 31
-58 94 -117 147 -138 55 -20 175 -16 223 8 29 15 36 15 48 3 26 -25 55 -28 83
-7 l26 19 3 236 c2 226 1 238 -18 257 -25 25 -64 26 -90 0 -19 -19 -20 -19
-62 0 -48 22 -152 26 -203 8z m178 -150 c72 -50 76 -160 9 -221 -69 -62 -196
-27 -223 63 -39 130 103 235 214 158z"/>
<path d="M1766 385 c-3 -9 -6 -37 -6 -61 l0 -45 -32 17 c-91 47 -212 -29 -212
-133 1 -95 60 -157 150 -157 31 0 61 6 77 16 22 15 26 15 31 3 3 -8 15 -15 26
-15 20 0 20 4 18 193 -3 187 -4 192 -24 195 -13 2 -24 -4 -28 -13z m-32 -161
c39 -40 37 -103 -5 -138 -51 -44 -115 -32 -145 26 -49 95 74 187 150 112z"/>
<path d="M2336 385 c-8 -21 -8 -338 0 -359 7 -18 35 -21 50 -6 7 7 22 6 47 -5
48 -20 72 -19 123 6 56 27 84 72 84 136 0 113 -109 183 -215 139 l-34 -15 -3
57 c-3 49 -6 57 -24 60 -13 2 -24 -4 -28 -13z m209 -151 c31 -20 49 -73 36
-106 -13 -33 -58 -68 -88 -68 -38 0 -79 26 -93 59 -36 87 65 167 145 115z"/>
<path d="M3020 234 l0 -166 29 -29 c24 -24 38 -29 75 -29 42 0 46 2 46 25 0
21 -5 25 -30 25 -53 0 -70 29 -70 119 l0 80 48 3 c39 3 47 6 47 23 0 17 -8 20
-47 23 l-48 3 0 45 c0 40 -2 44 -25 44 l-25 0 0 -166z"/>
<path d="M1882 298 c-14 -14 -17 -255 -3 -276 5 -8 17 -12 27 -10 18 3 19 14
19 148 0 122 -2 145 -15 148 -9 1 -21 -3 -28 -10z"/>
<path d="M2061 292 c-83 -42 -109 -148 -56 -228 24 -37 98 -68 144 -59 20 3
46 13 58 20 18 12 22 12 27 0 3 -8 15 -15 26 -15 20 0 20 4 18 147 -3 150 -9
171 -42 138 -14 -14 -18 -14 -45 0 -39 20 -88 19 -130 -3z m128 -63 c49 -46
49 -102 -1 -144 -76 -64 -186 14 -148 106 7 16 22 36 34 44 30 22 88 19 115
-6z"/>
<path d="M2750 288 c-52 -36 -72 -70 -73 -124 -1 -95 58 -158 149 -159 55 0
106 26 112 57 4 23 -26 30 -51 13 -37 -26 -94 -19 -128 14 -16 16 -29 34 -29
40 0 6 44 11 118 13 l117 3 3 30 c4 40 -33 95 -78 117 -48 25 -100 23 -140 -4z"/>
<path d="M3270 289 c-44 -27 -57 -44 -70 -92 -40 -140 130 -256 237 -162 26
22 27 25 11 41 -15 15 -18 15 -39 0 -38 -26 -101 -21 -132 12 -45 47 -38 51
91 54 l117 3 3 30 c6 63 -73 135 -148 135 -19 0 -51 -10 -70 -21z"/>
<path d="M3570 297 c-14 -7 -31 -25 -38 -40 -21 -44 -4 -78 54 -108 37 -19 50
-31 52 -52 4 -30 -16 -38 -78 -34 -29 2 -35 -1 -35 -18 0 -47 98 -57 143 -15
54 50 39 113 -36 153 -34 19 -52 35 -52 47 0 23 29 33 65 24 35 -9 51 13 28
38 -19 21 -67 23 -103 5z"/>
</g>
</svg>
